<?xml version="1.0" encoding="utf-8"?>
<!-- Generator: Adobe Illustrator 23.0.1, SVG Export Plug-In . SVG Version: 6.00 Build 0)  -->
<svg version="1.1" id="Layer_1" xmlns="http://www.w3.org/2000/svg" xmlns:xlink="http://www.w3.org/1999/xlink" x="0px" y="0px"
	 viewBox="0 0 1200 1000" style="enable-background:new 0 0 1200 1000;" xml:space="preserve">
<style type="text/css">
	.st0{fill:url(#SVGID_1_);}
	.st1{fill:url(#SVGID_2_);}
	.st2{fill:url(#SVGID_3_);}
	.st3{fill:url(#SVGID_4_);}
	.st4{fill:url(#SVGID_5_);}
	.st5{fill:url(#SVGID_6_);}
	.st6{fill:url(#SVGID_7_);}
	.st7{fill:#FFFFFF;}
</style>
<g>
	<g>
		<linearGradient id="SVGID_1_" gradientUnits="userSpaceOnUse" x1="386.1731" y1="453.6167" x2="502.1475" y2="502.2804">
			<stop  offset="0" style="stop-color:#9335FF"/>
			<stop  offset="1" style="stop-color:#5C71FF"/>
		</linearGradient>
		<path class="st0" d="M495.08,491.71c1.48-5.29,0.22-11.21-3.17-15.5c-3.89-5.24-10.04-8.34-16.32-9.67
			c0.23-3.46,0.41-6.92,0.52-10.39c-2.86-0.2-5.74-0.24-8.59-0.51c-0.32,3.39-0.33,6.81-0.63,10.2c-1.31-0.11-2.63-0.18-3.94-0.22
			c0.03-3.38,0.32-6.75,0.46-10.13c-2.92-0.18-5.84-0.3-8.76-0.48c-0.09,3.39-0.27,6.77-0.54,10.15c-8.17-0.46-16.33-0.88-24.5-1.29
			c-0.14,1.6-0.18,3.2-0.26,4.81c2.4,0.17,4.8,0.27,7.21,0.4c-0.03,0.75-0.06,1.49-0.08,2.24c4.04,0.1,8.08,0.45,12.12,0.56
			c0.02,2.31-0.24,4.62-0.28,6.94c7.65,0.53,15.32,0.76,22.98,1.25c2.98,0.35,6.02,2.21,6.99,5.17c0.91,2.67-0.55,5.95-3.25,6.88
			c-4.29,1.83-9.02,0.89-13.52,0.84c0.03-2.3,0.23-4.58,0.3-6.87c-5.73-0.18-11.45-0.65-17.18-0.82
			c-0.41,9.17-0.98,18.34-1.37,27.51c5.71,0.34,11.42,0.62,17.14,0.89c0.14-2.24,0.23-4.47,0.36-6.7c0.66,0.01,1.33,0,2,0
			c3.97-0.02,8.05-0.03,11.67,1.78c2.13,1.04,2.89,3.59,2.76,5.8c5.74,0.22,11.49,0.76,17.24,0.76c0.23-5.23-2.01-10.29-5.41-14.18
			C491.7,498.52,494.15,495.42,495.08,491.71z"/>
		<linearGradient id="SVGID_2_" gradientUnits="userSpaceOnUse" x1="384.2474" y1="458.206" x2="500.2218" y2="506.8698">
			<stop  offset="0" style="stop-color:#9335FF"/>
			<stop  offset="1" style="stop-color:#5C71FF"/>
		</linearGradient>
		<path class="st1" d="M414.76,475.19c3,0.1,6.01,0.31,9.02,0.41c-0.27,0.97-0.73,1.87-1.17,2.77c7.29,0.33,14.58,0.71,21.87,1.13
			c0.1-2.07,0.21-4.15,0.33-6.22c-11.64-0.68-23.29-1.24-34.94-1.86c-1.47,1.99-3,3.95-4.36,6.03c2.44,0.16,4.87,0.32,7.32,0.31
			C413.47,476.92,413.93,475.83,414.76,475.19z"/>
		<linearGradient id="SVGID_3_" gradientUnits="userSpaceOnUse" x1="381.5265" y1="464.6903" x2="497.5009" y2="513.3541">
			<stop  offset="0" style="stop-color:#9335FF"/>
			<stop  offset="1" style="stop-color:#5C71FF"/>
		</linearGradient>
		<path class="st2" d="M442.08,482.58c-10.39-0.58-20.78-1.11-31.17-1.63c-0.08,1.17-0.14,2.35-0.14,3.53
			c10.4,0.39,20.79,1.05,31.18,1.55C441.98,484.88,442.03,483.73,442.08,482.58z"/>
		<linearGradient id="SVGID_4_" gradientUnits="userSpaceOnUse" x1="378.5434" y1="471.7996" x2="494.5178" y2="520.4634">
			<stop  offset="0" style="stop-color:#9335FF"/>
			<stop  offset="1" style="stop-color:#5C71FF"/>
		</linearGradient>
		<path class="st3" d="M430.14,493.9c0.7-1.59,1.45-3.16,2.21-4.73c-4.21-0.39-8.44-0.49-12.67-0.72c-0.69,1.65-1.56,3.23-2.19,4.91
			C421.71,493.44,425.92,493.85,430.14,493.9z"/>
		<linearGradient id="SVGID_5_" gradientUnits="userSpaceOnUse" x1="372.977" y1="485.0652" x2="488.9514" y2="533.729">
			<stop  offset="0" style="stop-color:#9335FF"/>
			<stop  offset="1" style="stop-color:#5C71FF"/>
		</linearGradient>
		<path class="st4" d="M433.05,502.1c-11-0.56-21.99-1.13-32.99-1.72l-0.29,0.18c-0.59,1.06-1.19,2.1-1.77,3.17l33.21,1.75
			C431.83,504.36,432.51,503.27,433.05,502.1z"/>
		<linearGradient id="SVGID_6_" gradientUnits="userSpaceOnUse" x1="370.4189" y1="491.1617" x2="486.3933" y2="539.8255">
			<stop  offset="0" style="stop-color:#9335FF"/>
			<stop  offset="1" style="stop-color:#5C71FF"/>
		</linearGradient>
		<polygon class="st5" points="441.1,510.82 405.93,509.19 405.62,515.93 440.79,517.57 		"/>
		<linearGradient id="SVGID_7_" gradientUnits="userSpaceOnUse" x1="370.6216" y1="490.6785" x2="486.596" y2="539.3422">
			<stop  offset="0" style="stop-color:#9335FF"/>
			<stop  offset="1" style="stop-color:#5C71FF"/>
		</linearGradient>
		<path class="st6" d="M426.52,523.06c0.73,0.04,1.46,0.08,2.2,0.14c0.06,1.07-0.34,2.31,0.05,3.29c4.01,0.2,8.03,0.51,12.05,0.57
			c0.25-1.06,0.19-2.16,0.23-3.24c2.74,0.12,5.48,0.26,8.22,0.38c-0.09,2.19-0.26,4.37-0.3,6.57c-7.61-0.35-15.22-0.91-22.84-1.11
			c-0.04,0.95-0.07,1.9-0.06,2.86c8.18,0.41,16.35,0.82,24.53,1.26c-0.09,3.38-0.44,6.75-0.44,10.13c2.88,0.13,5.75,0.28,8.62,0.45
			c0.19-3.36,0.38-6.73,0.52-10.09c1.32,0.02,2.64,0.08,3.95,0.1c0.1,3.37-0.27,6.74-0.42,10.11c2.89,0.32,5.82,0.29,8.71,0.54
			c0.19-3.6,0.38-7.19,0.56-10.79c3.53-0.44,7.06-1.26,10.26-2.86c4.13-2.07,7.97-5.21,9.97-9.45c-21.86-1.09-43.72-2.33-65.58-3.39
			C426.69,520.03,426.59,521.55,426.52,523.06z"/>
	</g>
	<g>
		<g>
			<path class="st7" d="M547.62,493.52c-0.72-0.72-1.07-1.59-1.07-2.63c0-1.04,0.36-1.92,1.07-2.63c0.72-0.72,1.59-1.07,2.63-1.07
				c1.04,0,1.92,0.36,2.63,1.07c0.72,0.72,1.07,1.59,1.07,2.63c0,1.04-0.36,1.92-1.07,2.63c-0.72,0.72-1.59,1.07-2.63,1.07
				C549.21,494.59,548.33,494.23,547.62,493.52 M553.41,519.05h-6.31V496.4h6.31V519.05z"/>
			<path class="st7" d="M566.92,500.95v10.15c0,0.87,0.22,1.55,0.67,2.04c0.45,0.49,0.98,0.74,1.6,0.74c1.18,0,2.17-0.53,2.99-1.6
				l2.36,4.42c-1.97,1.8-4.04,2.69-6.21,2.69c-2.18,0-4.01-0.72-5.52-2.15c-1.5-1.43-2.25-3.38-2.25-5.85v-10.44h-2.65v-4.55h2.65
				v-6.78h6.36v6.78h5.47v4.55H566.92z"/>
			<path class="st7" d="M588.77,513.79c2.1,0,4-1.05,5.68-3.16l3.75,4.21c-2.92,3.03-6.08,4.55-9.47,4.55
				c-3.4,0-6.27-1.07-8.61-3.22c-2.34-2.15-3.51-4.95-3.51-8.42c0-3.47,1.19-6.29,3.56-8.46c2.37-2.18,5.18-3.26,8.44-3.26
				c1.63,0,3.28,0.34,4.95,1.01c1.67,0.67,3.14,1.67,4.4,2.99l-3.28,4.29c-0.73-0.87-1.62-1.54-2.67-2.02
				c-1.05-0.48-2.1-0.72-3.14-0.72c-1.66,0-3.08,0.54-4.27,1.62c-1.19,1.08-1.79,2.58-1.79,4.51s0.6,3.42,1.79,4.48
				C585.77,513.26,587.17,513.79,588.77,513.79"/>
			<path class="st7" d="M624.68,507.73c0,3.28-1.14,6.05-3.41,8.29c-2.27,2.25-5.13,3.37-8.57,3.37c-3.44,0-6.29-1.12-8.57-3.37
				c-2.27-2.25-3.41-5.01-3.41-8.29c0-3.28,1.14-6.06,3.41-8.31c2.27-2.26,5.13-3.39,8.57-3.39c3.44,0,6.29,1.13,8.57,3.39
				C623.54,501.67,624.68,504.44,624.68,507.73 M607.08,507.73c0,1.85,0.53,3.36,1.58,4.53c1.05,1.17,2.4,1.75,4.04,1.75
				c1.64,0,2.99-0.58,4.04-1.75c1.05-1.16,1.58-2.67,1.58-4.53s-0.53-3.37-1.58-4.55c-1.05-1.18-2.4-1.77-4.04-1.77
				c-1.64,0-2.99,0.59-4.04,1.77C607.61,504.36,607.08,505.87,607.08,507.73"/>
			<path class="st7" d="M629.88,493.52c-0.72-0.72-1.07-1.59-1.07-2.63c0-1.04,0.36-1.92,1.07-2.63c0.72-0.72,1.59-1.07,2.63-1.07
				c1.04,0,1.92,0.36,2.63,1.07c0.72,0.72,1.07,1.59,1.07,2.63c0,1.04-0.36,1.92-1.07,2.63c-0.72,0.72-1.59,1.07-2.63,1.07
				C631.47,494.59,630.59,494.23,629.88,493.52 M635.67,519.05h-6.31V496.4h6.31V519.05z"/>
			<path class="st7" d="M647.96,506.42v12.63h-6.31V496.4h6.31v2.53c1.91-1.94,4.05-2.9,6.44-2.9c2.39,0,4.39,0.84,6,2.52
				c1.61,1.68,2.42,3.93,2.42,6.74v13.77h-6.31v-12.8c0-3.48-1.28-5.22-3.83-5.22c-1.26,0-2.37,0.46-3.31,1.37
				C648.43,503.31,647.96,504.65,647.96,506.42"/>
			<path class="st7" d="M693.05,499.39c0,4.71-1.87,7.76-5.6,9.14l7.45,10.52h-8.08l-6.53-9.39h-4.55v9.39h-6.57v-29.43h11.16
				c4.57,0,7.84,0.77,9.79,2.32C692.07,493.48,693.05,495.97,693.05,499.39 M685.13,502.89c0.81-0.73,1.22-1.89,1.22-3.47
				c0-1.58-0.42-2.67-1.26-3.26c-0.84-0.59-2.32-0.88-4.42-0.88h-4.93v8.71h4.8C682.79,503.98,684.32,503.62,685.13,502.89"/>
			<path class="st7" d="M720.05,492.25c2.06,1.75,3.09,4.45,3.09,8.08c0,3.64-1.06,6.29-3.18,7.98c-2.12,1.68-5.35,2.53-9.7,2.53
				h-3.92v8.21h-6.57v-29.43h10.4C714.7,489.62,717.99,490.5,720.05,492.25 M715.23,503.83c0.79-0.88,1.18-2.17,1.18-3.87
				c0-1.7-0.51-2.9-1.54-3.62c-1.02-0.72-2.62-1.07-4.78-1.07h-3.75v9.89h4.42C712.96,505.16,714.45,504.72,715.23,503.83"/>
			<path class="st7" d="M753.04,514.99c-2.98,2.91-6.64,4.36-10.99,4.36c-4.35,0-8.01-1.45-10.99-4.36
				c-2.98-2.9-4.46-6.52-4.46-10.84c0-4.32,1.49-7.94,4.46-10.84c2.97-2.9,6.64-4.36,10.99-4.36c4.35,0,8.01,1.45,10.99,4.36
				c2.98,2.9,4.46,6.52,4.46,10.84C757.5,508.47,756.01,512.08,753.04,514.99 M750.81,504.17c0-2.62-0.84-4.86-2.53-6.72
				c-1.68-1.85-3.75-2.78-6.21-2.78c-2.46,0-4.53,0.93-6.21,2.78s-2.52,4.09-2.52,6.72c0,2.62,0.84,4.86,2.52,6.69
				s3.75,2.76,6.21,2.76c2.46,0,4.53-0.92,6.21-2.76C749.96,509.02,750.81,506.79,750.81,504.17"/>
			<polygon class="st7" points="771.77,506.55 776.99,489.62 783.86,489.62 789.03,506.55 794.88,489.62 802,489.62 791.73,519.05 
				786.84,519.05 780.4,498.59 774,519.05 769.12,519.05 758.85,489.62 765.96,489.62 			"/>
		</g>
		<g>
			<path class="st7" d="M531.09,519.05h-13.95v-31.87h12.4c2.16,0,4.02,0.26,5.59,0.78c1.56,0.52,2.74,1.21,3.53,2.1
				c1.43,1.64,2.14,3.5,2.14,5.56c0,2.49-0.81,4.35-2.42,5.56c-0.55,0.43-0.93,0.69-1.14,0.8c-0.21,0.11-0.59,0.28-1.14,0.52
				c1.98,0.43,3.55,1.32,4.72,2.67c1.17,1.35,1.76,3.03,1.76,5.04c0,2.22-0.76,4.18-2.28,5.88
				C538.54,518.06,535.47,519.05,531.09,519.05z M524.25,500.08h3.37c1.98,0,3.44-0.21,4.4-0.64c0.96-0.42,1.44-1.34,1.44-2.76
				s-0.44-2.35-1.32-2.81c-0.88-0.46-2.37-0.68-4.47-0.68h-3.42V500.08z M524.25,513.03h4.88c2.04,0,3.56-0.25,4.58-0.75
				s1.53-1.49,1.53-2.96c0-1.48-0.54-2.45-1.62-2.92c-1.08-0.47-2.81-0.7-5.18-0.7h-4.19V513.03z"/>
		</g>
	</g>
</g>
</svg>
