<?xml version="1.0" encoding="utf-8"?>
<!-- Generator: Adobe Illustrator 23.0.1, SVG Export Plug-In . SVG Version: 6.00 Build 0)  -->
<svg version="1.1" id="Layer_1" xmlns="http://www.w3.org/2000/svg" xmlns:xlink="http://www.w3.org/1999/xlink" x="0px" y="0px"
	 viewBox="0 0 1200 1000" style="enable-background:new 0 0 1200 1000;" xml:space="preserve">
<style type="text/css">
	.st0{fill:url(#SVGID_1_);}
	.st1{fill:url(#SVGID_2_);}
	.st2{fill:url(#SVGID_3_);}
	.st3{fill:url(#SVGID_4_);}
	.st4{fill:url(#SVGID_5_);}
	.st5{fill:url(#SVGID_6_);}
	.st6{fill:url(#SVGID_7_);}
</style>
<g>
	<g>
		<linearGradient id="SVGID_1_" gradientUnits="userSpaceOnUse" x1="524.5076" y1="442.2857" x2="668.8132" y2="502.8375">
			<stop  offset="0" style="stop-color:#9335FF"/>
			<stop  offset="1" style="stop-color:#5C71FF"/>
		</linearGradient>
		<path class="st0" d="M660.01,489.68c1.84-6.58,0.28-13.95-3.94-19.29c-4.84-6.53-12.5-10.38-20.31-12.03
			c0.29-4.3,0.51-8.61,0.65-12.92c-3.56-0.24-7.14-0.3-10.69-0.64c-0.39,4.22-0.41,8.47-0.78,12.69c-1.63-0.14-3.27-0.22-4.9-0.28
			c0.03-4.21,0.39-8.4,0.57-12.6c-3.63-0.22-7.27-0.37-10.9-0.6c-0.12,4.22-0.34,8.43-0.67,12.63c-10.16-0.57-20.32-1.09-30.49-1.6
			c-0.18,1.99-0.22,3.99-0.32,5.98c2.98,0.21,5.98,0.33,8.97,0.5c-0.04,0.93-0.07,1.86-0.1,2.79c5.03,0.13,10.05,0.56,15.08,0.69
			c0.03,2.88-0.3,5.75-0.35,8.63c9.52,0.65,19.06,0.95,28.59,1.55c3.71,0.43,7.49,2.75,8.69,6.44c1.13,3.33-0.68,7.41-4.05,8.56
			c-5.34,2.28-11.22,1.11-16.82,1.05c0.03-2.86,0.29-5.7,0.37-8.55c-7.13-0.22-14.24-0.8-21.37-1.02
			c-0.51,11.42-1.22,22.82-1.71,34.24c7.1,0.43,14.21,0.77,21.32,1.11c0.18-2.78,0.29-5.56,0.45-8.34c0.82,0.01,1.66,0,2.49,0
			c4.94-0.02,10.02-0.04,14.52,2.22c2.65,1.29,3.59,4.47,3.43,7.22c7.15,0.27,14.3,0.94,21.45,0.94c0.28-6.51-2.5-12.81-6.74-17.64
			C655.82,498.16,658.86,494.31,660.01,489.68z"/>
		<linearGradient id="SVGID_2_" gradientUnits="userSpaceOnUse" x1="522.1115" y1="447.9962" x2="666.4171" y2="508.5479">
			<stop  offset="0" style="stop-color:#9335FF"/>
			<stop  offset="1" style="stop-color:#5C71FF"/>
		</linearGradient>
		<path class="st1" d="M560.08,469.13c3.74,0.13,7.48,0.38,11.22,0.52c-0.34,1.2-0.91,2.32-1.46,3.44
			c9.07,0.42,18.14,0.88,27.21,1.41c0.13-2.58,0.27-5.16,0.41-7.74c-14.49-0.85-28.98-1.55-43.47-2.31
			c-1.83,2.48-3.74,4.91-5.42,7.5c3.03,0.2,6.07,0.4,9.1,0.39C558.47,471.28,559.05,469.93,560.08,469.13z"/>
		<linearGradient id="SVGID_3_" gradientUnits="userSpaceOnUse" x1="518.726" y1="456.0646" x2="663.0315" y2="516.6163">
			<stop  offset="0" style="stop-color:#9335FF"/>
			<stop  offset="1" style="stop-color:#5C71FF"/>
		</linearGradient>
		<path class="st2" d="M594.07,478.32c-12.93-0.72-25.85-1.38-38.79-2.03c-0.1,1.46-0.18,2.93-0.18,4.39
			c12.94,0.49,25.87,1.3,38.8,1.93C593.95,481.18,594.01,479.75,594.07,478.32z"/>
		<linearGradient id="SVGID_4_" gradientUnits="userSpaceOnUse" x1="515.0141" y1="464.9106" x2="659.3197" y2="525.4623">
			<stop  offset="0" style="stop-color:#9335FF"/>
			<stop  offset="1" style="stop-color:#5C71FF"/>
		</linearGradient>
		<path class="st3" d="M579.21,492.41c0.88-1.98,1.81-3.94,2.75-5.89c-5.24-0.48-10.51-0.61-15.76-0.9
			c-0.86,2.06-1.94,4.02-2.73,6.11C568.72,491.83,573.96,492.34,579.21,492.41z"/>
		<linearGradient id="SVGID_5_" gradientUnits="userSpaceOnUse" x1="508.0879" y1="481.4168" x2="652.3936" y2="541.9686">
			<stop  offset="0" style="stop-color:#9335FF"/>
			<stop  offset="1" style="stop-color:#5C71FF"/>
		</linearGradient>
		<path class="st4" d="M582.83,502.62c-13.68-0.69-27.36-1.4-41.05-2.15l-0.36,0.23c-0.73,1.32-1.48,2.62-2.21,3.94l41.32,2.18
			C581.31,505.43,582.17,504.07,582.83,502.62z"/>
		<linearGradient id="SVGID_6_" gradientUnits="userSpaceOnUse" x1="504.9049" y1="489.0026" x2="649.2104" y2="549.5544">
			<stop  offset="0" style="stop-color:#9335FF"/>
			<stop  offset="1" style="stop-color:#5C71FF"/>
		</linearGradient>
		<polygon class="st5" points="592.85,513.46 549.09,511.43 548.7,519.83 592.46,521.86 		"/>
		<linearGradient id="SVGID_7_" gradientUnits="userSpaceOnUse" x1="505.1572" y1="488.4013" x2="649.4628" y2="548.9531">
			<stop  offset="0" style="stop-color:#9335FF"/>
			<stop  offset="1" style="stop-color:#5C71FF"/>
		</linearGradient>
		<path class="st6" d="M574.71,528.7c0.91,0.05,1.82,0.1,2.73,0.17c0.08,1.34-0.43,2.87,0.06,4.09c4.99,0.24,9.99,0.64,14.99,0.71
			c0.31-1.32,0.23-2.69,0.28-4.03c3.41,0.15,6.82,0.32,10.23,0.48c-0.12,2.73-0.32,5.44-0.38,8.17c-9.47-0.44-18.94-1.13-28.41-1.39
			c-0.05,1.18-0.08,2.36-0.08,3.55c10.17,0.51,20.35,1.02,30.52,1.56c-0.11,4.2-0.54,8.39-0.54,12.6c3.58,0.16,7.16,0.35,10.73,0.56
			c0.23-4.18,0.47-8.37,0.65-12.55c1.64,0.03,3.28,0.1,4.92,0.12c0.13,4.2-0.33,8.39-0.52,12.58c3.6,0.4,7.24,0.36,10.84,0.67
			c0.24-4.47,0.47-8.95,0.69-13.42c4.4-0.55,8.78-1.56,12.76-3.56c5.14-2.58,9.92-6.49,12.4-11.76c-27.2-1.35-54.39-2.9-81.6-4.22
			C574.92,524.93,574.8,526.81,574.71,528.7z"/>
	</g>
</g>
</svg>
