<?xml version="1.0" encoding="UTF-8"?>
<!DOCTYPE svg PUBLIC "-//W3C//DTD SVG 1.1//EN" "http://www.w3.org/Graphics/SVG/1.1/DTD/svg11.dtd">
<svg xmlns="http://www.w3.org/2000/svg" xml:space="preserve" width="210mm" height="297mm" style="shape-rendering:geometricPrecision; text-rendering:geometricPrecision; image-rendering:optimizeQuality; fill-rule:evenodd; clip-rule:evenodd"
viewBox="0 0 210 297">
 <g id="BTCRlogo">
  <path style="" fill="#009F42" stroke="none" d="M67.2518 185.874l0 -18.4616 77.8128 0c-4.2352,9.0946 -14.2253,15.9139 -26.3842,17.5629l0 14.7452 -11.4286 0 0 -13.8465 -5.7142 0 0 13.8465 -11.4286 0 0 -13.8465 -22.8572 0zm51.4286 -91.9219c16.2128,2.1984 28.5714,13.5879 28.5714,27.3065 0,6.9689 -3.1899,13.3361 -8.453,18.204 5.2631,4.8679 8.453,11.2361 8.453,18.2047 0,0.1721 -0.0043,0.3431 -0.0082,0.5144l-22.8672 0c0.0114,-0.1704 0.0183,-0.3416 0.0183,-0.5142 0,-10.7714 -14.0752,-8.7166 -22.8581,-8.7166l0 9.2308 -22.8571 0 0 -36.9231 22.8571 0 0 9.2308c8.7637,0 22.8581,1.0209 22.8581,-9.2306 0,-5.0971 -5.1182,-9.231 -11.4283,-9.231l-0.0003 0 -45.7143 0 0 -18.4615c12.4556,0 17.9989,0.0061 22.8572,0.01l0 -13.8558 11.4286 0 0 13.8569 5.7142 -0.0045 0 -13.8524 11.4286 0 0 14.2316z"/>
 </g>
</svg>
